# xmcd
#
# Track frame offsets:
#	150
#	13265
#	26867
#	39880
#	54290
#	66023
#	77950
#	89601
#	100718
#	114290
#	128214
#	151530
#	163898
#	174658
#	188312
#	201040
#	213086
#	225776
#	236658
#	248803
#	261236
#	273515
#	287506
#	301758
#
# Disc length: 4192 seconds
#
# Revision: 1
# Processed by: cddbd v1.5.2PL0 Copyright (c) Steve Scherf et al.
# Submitted via: audiograbber 1.83.01
#
DISCID=31105e18
DTITLE=Various Artist - Rhythm and Blues: No. 1 Chart Hits 1949-1955
DYEAR=2007
DGENRE=R&B
TTITLE0=Percy Mayfield - Please Send Me Someone to Love
TTITLE1=Joe Liggins - Pink Champagne
TTITLE2=Ruth Brown - Teardrops from My Eyes
TTITLE3=Ivory Joe Hunter - I Almost Lost My Mind
TTITLE4=The Four Blazes - Mary Jo
TTITLE5=The Platters - Only You (And You Alone)
TTITLE6=Little Esther and Mel Walker - Cupid's Boogie
TTITLE7=Peppermint Harris - I Got Loaded
TTITLE8=Roy Brown - Hard Luck Blues
TTITLE9=Joe Morris - Any Time, Any Place, Anywhere
TTITLE10=Louis Jordan - Blue Light Boogie - Parts 1 and 2
TTITLE11=Johnny Ace - Pledging My Love
TTITLE12=The Dominoes - Have Mercy Baby
TTITLE13=B.B. King - You Upset Me Baby
TTITLE14=Lowell Fulson - Blue Shadows
TTITLE15=Little Walter - My Babe
TTITLE16=Hank Ballard - Work with Me Annie
TTITLE17=The Drifters - Honey Love
TTITLE18=Eddie Boyrd - Five Long Years
TTITLE19=The "5" Royales - Baby Don't Do It
TTITLE20=Joe Turner - Honey Hush
TTITLE21=Jimmy Nelson - "T" 99 Blues
TTITLE22=Willie Mabon - I Don't Know
TTITLE23=Etta James - The Wallflower
EXTD=
EXTT0=
EXTT1=
EXTT2=
EXTT3=
EXTT4=
EXTT5=
EXTT6=
EXTT7=
EXTT8=
EXTT9=
EXTT10=
EXTT11=
EXTT12=
EXTT13=
EXTT14=
EXTT15=
EXTT16=
EXTT17=
EXTT18=
EXTT19=
EXTT20=
EXTT21=
EXTT22=
EXTT23=
PLAYORDER=
